<?xml version="1.0" encoding="utf-8"?>
<!-- Generator: Adobe Illustrator 15.1.0, SVG Export Plug-In . SVG Version: 6.00 Build 0)  -->
<!DOCTYPE svg PUBLIC "-//W3C//DTD SVG 1.1//EN" "http://www.w3.org/Graphics/SVG/1.1/DTD/svg11.dtd">
<svg version="1.1" id="Layer_1" xmlns="http://www.w3.org/2000/svg" xmlns:xlink="http://www.w3.org/1999/xlink" x="0px" y="0px"
	 width="20px" height="15px" viewBox="0 0 20 15" style="enable-background:new 0 0 20 15;" xml:space="preserve">
<style type="text/css">
<![CDATA[
	.st0{fill:#F4B233;}
]]>
</style>
<g>
	<path class="st0" d="M0,6.874v6.252C0,14.16,1.042,15,2.314,15c1.273,0,2.307-0.84,2.307-1.874V6.874C4.621,5.839,3.586,5,2.314,5
		C1.035,5,0,5.839,0,6.874L0,6.874z"/>
	<path class="st0" d="M7.693,4.376v8.75C7.693,14.16,8.729,15,10,15c1.273,0,2.314-0.84,2.314-1.874v-8.75
		c0-1.034-1.041-1.88-2.314-1.88C8.729,2.497,7.693,3.342,7.693,4.376L7.693,4.376z"/>
	<g>
		<path class="st0" d="M15.387,1.873v11.253c0,1.034,1.033,1.874,2.307,1.874C18.966,15,20,14.16,20,13.126V1.873
			C20,0.84,18.966,0,17.693,0C16.42,0,15.387,0.84,15.387,1.873L15.387,1.873z"/>
	</g>
</g>
</svg>
