<?xml version="1.0" encoding="utf-8"?>
<!-- Generator: Adobe Illustrator 15.1.0, SVG Export Plug-In . SVG Version: 6.00 Build 0)  -->
<!DOCTYPE svg PUBLIC "-//W3C//DTD SVG 1.1//EN" "http://www.w3.org/Graphics/SVG/1.1/DTD/svg11.dtd">
<svg version="1.1" id="Layer_1" xmlns="http://www.w3.org/2000/svg" xmlns:xlink="http://www.w3.org/1999/xlink" x="0px" y="0px"
	 width="290px" height="290px" viewBox="0 0 290 290" style="enable-background:new 0 0 290 290;" xml:space="preserve">
<style type="text/css">
<![CDATA[
	.st0{fill:#F19743;}
	.st1{fill:#F6AC5F;}
	.st2{fill:#FFFFFF;}
]]>
</style>
<circle class="st1" cx="145" cy="145" r="145"/>
<path class="st0" d="M285.664,180.264c-2.057-2.053-4.108-4.105-6.16-6.154c-10.965-10.97-21.935-21.934-32.898-32.898
	c-21.928-21.932-43.861-43.863-65.792-65.794c-6.315-6.318-13.911-17.074-22.099-20.701c-10.871-4.818-23.151,4.973-20.842,16.655
	c0.941,4.746,4.261,7.752,7.442,11.023c3.051,3.137,6.16,6.243,9.292,9.297c-4.187-2.758-8.374-5.52-12.561-8.278
	c-8.677-5.718-9.301-4.865-15.588,4.633c-7.24,10.942-14.616,21.804-21.715,32.835c-3.865,6.008-4.485,8.836,0.122,14.02
	c1.937,2.174,7.95,5.917,8.648,8.645c0.733,2.875-2.457,6.779-4.004,9.675c-0.468,0.877-2.307,5.958-3.461,6.478
	c-2.882,1.301-15.127-2.593-19.475-1.916c-34.534,5.34-39.716,45.016-18.06,67.036c2.817,2.863,5.676,5.688,8.521,8.527
	c11.21,11.2,22.416,22.407,33.613,33.618c7.506,7.513,15.023,15.015,22.535,22.518c3.899,0.312,7.834,0.52,11.814,0.52
	C212.918,290,269.908,243.299,285.664,180.264z"/>
<g>
	<path class="st2" d="M143.534,80.438c6.613,5.016,16.044,3.723,21.064-2.894c5.018-6.616,3.718-16.044-2.893-21.063
		c-6.617-5.015-16.049-3.721-21.064,2.894C135.624,65.99,136.92,75.421,143.534,80.438z"/>
	<path class="st2" d="M190.055,121.746l-0.127-0.387c-0.529-1.967-2.333-3.057-4.389-3.057h-3.84l6.846,2.71
		C189.078,121.234,189.58,121.441,190.055,121.746z"/>
	<path class="st2" d="M239.926,180.391c-1.905-4.498-4.625-8.533-8.094-11.997c-3.472-3.47-7.51-6.185-12.011-8.083
		c-4.661-1.975-9.608-2.95-14.711-2.947c-1.782,0-3.575,0.176-5.34,0.424l-6.421-23.844c-1.553,3.064-4.618,5.389-8.074,5.512
		l0.398,1.817h-35.135c0.961,1.437,1.5,3.369,1.512,5.356l0.023,3.258h31.281L151.709,182.7v10.271c0,1.074,0.112,2.113-0.176,3.104
		l38.122-40.488l1.265,4.457c-0.196,0.078-0.357,0.158-0.549,0.238c-4.504,1.906-8.523,4.629-11.992,8.098
		c-3.469,3.468-6.183,7.509-8.088,12.01c-1.97,4.658-2.967,9.609-2.967,14.708c0,5.098,1.004,10.047,2.973,14.711
		c1.904,4.498,4.631,8.539,8.098,12.009c3.467,3.465,7.509,6.189,12.009,8.096c4.662,1.969,9.61,2.967,14.708,2.967
		c5.102,0,10.047-0.998,14.711-2.967c4.502-1.906,8.539-4.631,12.01-8.096c3.471-3.47,6.188-7.511,8.094-12.009
		c1.976-4.662,2.975-9.606,2.975-14.708S241.899,185.056,239.926,180.391z M225.457,215.441c-5.434,5.437-12.662,8.427-20.347,8.431
		c-7.685-0.004-14.909-2.99-20.346-8.431c-5.437-5.433-8.425-12.661-8.427-20.346c0.002-7.688,2.994-14.91,8.43-20.347
		c2.512-2.512,5.39-4.504,8.576-5.93l7.379,27.477c0.527,1.97,2.333,3.35,4.388,3.35c0.404,0,0.804-0.053,1.181-0.154
		c2.418-0.648,3.86-3.148,3.211-5.564l-7.369-27.449c0.986-0.104,1.988-0.156,2.979-0.156c7.686,0,14.913,2.994,20.346,8.43
		c5.439,5.437,8.43,12.658,8.43,20.347C233.887,202.78,230.896,210.008,225.457,215.441z"/>
	<path class="st2" d="M130.173,190.084h-0.424c-0.413-2.871-1.305-6.625-2.708-9.951c-1.923-4.534-4.645-8.538-8.101-11.994
		c-1.559-1.559-3.256-2.771-5.046-4.026l5.422-9.956l10.614,19.879l-0.118-19.297l-1.819-3.365
		c-2.828-1.647-6.131-3.574-6.426-3.764l-8.811-5.812c0.711,1.322,1.438,2.673,1.438,2.673l-8.245,15.413
		c-4.373-1.709-8.986-2.567-13.727-2.567c-5.098,0-10.046,0.996-14.708,2.972c-4.497,1.901-8.539,4.623-12.009,8.096
		c-3.47,3.465-6.189,7.51-8.095,12.007c-1.972,4.661-2.971,9.61-2.974,14.708c0,5.102,0.999,10.052,2.974,14.711
		c1.905,4.498,4.625,8.542,8.095,12.012c3.47,3.471,7.512,6.198,12.009,8.104c4.662,1.973,9.61,2.986,14.708,2.986
		c5.098,0,10.049-0.978,14.711-2.945c4.501-1.905,8.536-4.578,12.006-8.049c3.471-3.469,6.192-7.344,8.101-11.844
		c1.406-3.328,2.295-7.064,2.705-9.939h2.728c-1.567-1.432-2.301-4.494-2.301-7.159L130.173,190.084L130.173,190.084z
		 M109.604,171.956c1.022,0.785,2.021,1.75,2.968,2.696c2.327,2.332,4.221,4.74,5.624,7.685c1.2,2.506,2.021,6.311,2.453,7.748
		H99.742L109.604,171.956z M118.196,207.774c-1.403,2.938-3.294,5.37-5.624,7.702c-5.436,5.433-12.661,8.412-20.349,8.412
		c-7.685-0.003-14.91-3.003-20.346-8.437c-5.433-5.438-8.427-12.66-8.427-20.346c0-7.688,2.994-14.906,8.424-20.343
		c5.438-5.437,12.664-8.415,20.349-8.415c3.251,0,6.417,0.555,9.437,1.6l-13.408,25.127c-0.742,1.385-0.702,3.25,0.109,4.602
		c0.809,1.351,2.289,2.46,3.862,2.46l28.426-0.007C120.221,203.006,119.396,205.27,118.196,207.774z"/>
	<path class="st2" d="M149.944,146.125c-0.019-3.049-1.721-5.879-4.307-7.5l-10.623-6.656l13.625-20.65l3.343,9.901
		c0.67,1.983,2.171,3.581,4.105,4.378l26.078,10.757c0.906,0.374,1.842,0.549,2.764,0.549c2.846,0,5.545-1.688,6.699-4.483
		c1.523-3.698-0.236-7.936-3.938-9.459l-23.033-9.502l-5.789-17.128c-0.121-0.355-0.914-2.429-1.578-2.865l-1.297-0.857
		c-0.068-0.046-0.139-0.094-0.214-0.138l-20.276-13.379c-1.204-0.794-2.823-0.463-3.614,0.741
		c-9.035,13.694-18.141,27.352-27.155,41.052c-1.643,2.492-4.634,5.572-3.93,8.841c0.779,3.616,5.477,5.133,8.182,6.918
		c0.257,0.2,0.525,0.396,0.809,0.571l1.229,0.771l11.767,7.762c0.4,0.267,8.938,5.387,8.938,5.387l-0.119,28.125v13.71
		c0,4.922,4.408,8.915,9.333,8.918c4.925-0.003,9.33-3.996,9.33-8.918v-13.765L149.944,146.125z"/>
</g>
</svg>
