<?xml version="1.0" encoding="utf-8"?>
<!-- Generator: Adobe Illustrator 15.1.0, SVG Export Plug-In . SVG Version: 6.00 Build 0)  -->
<!DOCTYPE svg PUBLIC "-//W3C//DTD SVG 1.1//EN" "http://www.w3.org/Graphics/SVG/1.1/DTD/svg11.dtd">
<svg version="1.1" id="Layer_1" xmlns="http://www.w3.org/2000/svg" xmlns:xlink="http://www.w3.org/1999/xlink" x="0px" y="0px"
	 width="290px" height="290.205px" viewBox="0 0 290 290.205" style="enable-background:new 0 0 290 290.205;" xml:space="preserve"
	>
<style type="text/css">
<![CDATA[
	.st0{fill:#50186F;}
	.st1{fill:#FFFFFF;}
	.st2{fill:#6F1C92;}
]]>
</style>
<path class="st2" d="M0,145c0,80.083,64.919,145,145.003,145C225.081,290,290,225.083,290,145S225.081,0,145.003,0
	C64.919,0,0,64.917,0,145z"/>
<path class="st0" d="M147.863,290.205c78.498,0,142.137-63.636,142.137-142.14c-41.496-51.631-72.502-95.633-143.092-113.162
	C60.813,42.416-65.104,183.957,147.863,290.205z"/>
<path class="st2" d="M20.036,147.384c0,64.539,52.318,116.857,116.86,116.857c64.54,0,116.856-52.318,116.856-116.857
	c0-64.541-52.316-116.858-116.856-116.858C72.354,30.526,20.036,82.845,20.036,147.384z"/>
<path class="st1" d="M185.979,225.925l-13.348-20.01c-10.408,6.416-22.626,10.188-35.739,10.188
	c-37.886,0-68.723-30.83-68.723-68.722h19.636c0,27.068,22.022,49.093,49.087,49.093c9.1,0,17.534-2.595,24.812-6.953
	l-14.996-22.504h56.146L185.979,225.925z M185.979,147.384c0-27.064-22.021-49.087-49.085-49.087c-9.1,0-17.534,2.594-24.806,6.951
	l14.985,22.5h-56.14l16.875-58.905l13.336,20.01c10.419-6.414,22.632-10.192,35.75-10.192c37.891,0,68.723,30.829,68.723,68.723
	H185.979z"/>
</svg>
