<?xml version="1.0" encoding="utf-8"?>
<!-- Generator: Adobe Illustrator 15.1.0, SVG Export Plug-In . SVG Version: 6.00 Build 0)  -->
<!DOCTYPE svg PUBLIC "-//W3C//DTD SVG 1.1//EN" "http://www.w3.org/Graphics/SVG/1.1/DTD/svg11.dtd">
<svg version="1.1" id="Layer_1" xmlns="http://www.w3.org/2000/svg" xmlns:xlink="http://www.w3.org/1999/xlink" x="0px" y="0px"
	 width="290px" height="290.998px" viewBox="-1 -1 290 290.998" style="enable-background:new -1 -1 290 290.998;"
	 xml:space="preserve">
<style type="text/css">
<![CDATA[
	.st0{fill:#B5206A;}
	.st1{fill:#FFFFFF;}
	.st2{fill:#DA327B;}
]]>
</style>
<path class="st2" d="M143.999-1C63.92-1-1,63.92-1,144.001C-1,224.083,63.92,289,143.999,289C224.083,289,289,224.083,289,144.001
	C289,63.92,224.083-1,143.999-1z"/>
<path class="st0" d="M286.336,177.328C241.753,132.958,185.275,76.788,177.7,69.211c-5.812-5.808-11.478-11.759-17.286-17.567
	c-4.007-4.008-4.867-6.966-12.938-7.369c-6.759-0.336-23.828-4.158-22.208,5.29c0.424,2.468,2.488,4.05,3.966,5.53
	c1.412,1.41,2.994,2.671,4.521,3.966c-5.124,5.34-12.419,9.907-9.648,17.305c0.647,1.735,2.74,2.742,3.964,3.968
	c2.696,2.693,5.124,5.638,7.936,8.216c5.56,5.098,10.537,10.821,15.868,16.151c2.938,2.936,6.008,5.779,9.066,8.586
	c-10.668,0-14.812,0.27-19.487-4.413c-2.269-2.266-4.535-4.533-6.804-6.799c-4.532-4.534-9.067-9.067-13.599-13.603
	c-1.796-1.791-4.521-6.442-6.801-7.366c-2.076-0.844-16.593-1.187-17.65,0c-2.502,2.811,2.373,6.155,2.835,7.142
	c1.348,2.885,2.633,0.062,0.759,3.975c-2.713,5.664-6.273,5.951-2.982,10.763c1.57,2.292,4.777,4.777,6.801,6.801
	c2.549,2.55,5.384,4.816,7.936,7.367c1.088,1.087,3.172,2.74,3.966,3.968c2.015,3.122,1.556,8.855,1.556,14.34
	c-2.789-2.73-5.401-5.734-8.326-8.319c-5.793-5.121-10.101-5.381-17.444-5.941c-5.964-0.458-2.645,0.912-7.214-2.419
	c-6.821-4.973-11.558-15.295-19.97-17.497c-8.06-2.109-12.439,1.094-12.829,8.389c-0.485,9.098,0,18.358,0,27.466
	c0,21.257-2.072,43.641,0,64.8c1.308,13.341,21.651,27.347,31.099,36.795c6.033,6.033,28.071,28.07,50.77,50.771
	c3.781,0.295,7.589,0.49,11.443,0.49C213.963,290,271.641,241.837,286.336,177.328z"/>
<g>
	<path class="st1" d="M84.868,152.43c7.751,5.877,18.798,4.357,24.682-3.391c5.877-7.753,4.356-18.802-3.392-24.681
		c-7.751-5.877-18.801-4.359-24.679,3.389C75.598,135.5,77.12,146.548,84.868,152.43z"/>
	<path class="st1" d="M240.741,162.625H69.68v-56.84c0-2.484-2.015-4.498-4.498-4.498h-8.998c-2.483,0-4.498,2.013-4.498,4.498
		V205.83c0,2.486,2.015,4.498,4.498,4.498h8.998c2.483,0,4.498-2.012,4.498-4.498v-25.215h157.564v25.215
		c0,2.486,2.016,4.498,4.498,4.498h8.998c2.482,0,4.496-2.012,4.496-4.498v-38.708C245.238,164.641,243.223,162.625,240.741,162.625
		z"/>
	<path class="st1" d="M239.866,151.598c0-21.074-10.984-38.315-24.41-38.315h-97.642c-0.118,0-0.231,0.024-0.349,0.029v42.698
		h122.401V151.598z M127.28,146.193v-23.098h88.176c2.978,0,6.244,2.448,8.963,6.715c2.789,4.375,4.647,10.155,5.338,16.383H127.28z
		"/>
	<polygon class="st1" points="114.662,96.952 102.918,96.952 114.249,85.139 114.249,81.107 96.599,81.107 96.599,85.416 
		106.723,85.416 95.514,97.103 95.514,101.288 114.662,101.288 	"/>
	<polygon class="st1" points="153.988,69.471 135.316,69.471 153.33,50.69 153.33,44.275 125.268,44.275 125.268,51.127 
		141.364,51.127 123.539,69.712 123.539,76.366 153.988,76.366 	"/>
</g>
</svg>
