<?xml version="1.0" encoding="utf-8"?>
<!-- Generator: Adobe Illustrator 15.1.0, SVG Export Plug-In . SVG Version: 6.00 Build 0)  -->
<!DOCTYPE svg PUBLIC "-//W3C//DTD SVG 1.1//EN" "http://www.w3.org/Graphics/SVG/1.1/DTD/svg11.dtd">
<svg version="1.1" id="Layer_1" xmlns="http://www.w3.org/2000/svg" xmlns:xlink="http://www.w3.org/1999/xlink" x="0px" y="0px"
	 width="290px" height="290px" viewBox="0 0 290 290" style="enable-background:new 0 0 290 290;" xml:space="preserve">
<style type="text/css">
<![CDATA[
	.st0{fill:#EA408A;}
	.st1{fill:#F06395;}
	.st2{fill:#FFFFFF;}
]]>
</style>
<path class="st1" d="M145.001,0C64.92,0,0,64.918,0,144.999C0,225.083,64.92,290,145.001,290C225.083,290,290,225.083,290,144.999
	C290,64.918,225.083,0,145.001,0z"/>
<path class="st0" d="M223.576,64.263c-1.541-1.54-3.017-3.223-4.656-4.656c-3.524-3.082-2.491-3.852-6.371-2.237
	c-4.047,1.686-6.556,6.508-11.507,8.119c-5.646,1.837-11.855,1.44-17.598,2.897c-11.674,2.958-20.195,11.511-26.944,21.138
	c-4.55-4.421-8.978-8.977-13.464-13.462c-2.24-2.242-4.466-4.499-6.723-6.725c-2.284-2.25-8.704-10.867-12.188-9.375
	c-1.706,0.729-4.146,5.462-3.707,7.227c0.491,1.961,5.268,5.192,6.726,6.725c9.422,9.899,13.369,22.846,13.542,36.692
	c-21.714-13.955-46.445-8.518-58.399,15.149c-12.427,24.598-10.112,57.463,2.737,81.423c6.914,12.893,18.423,22.722,28.671,32.973
	c13.536,13.536,27.072,27.072,40.607,40.611c2.72,2.716,5.438,5.433,8.158,8.152C234.303,280.289,290,219.168,290,144.999
	c0-5.097-0.268-10.131-0.782-15.092c-15.325-15.329-30.657-30.657-45.982-45.986C236.679,77.368,230.125,70.816,223.576,64.263z"/>
<g>
	<path class="st2" d="M179.215,103.989c-10.369-1.124-20.49-0.563-28.842,6.762c-0.487,0.429-1.024,0.768-1.576,1.062
		c0.13-11.873-2.364-36.974-23.905-51.335l-3.96,5.941c18.735,12.489,20.782,35.39,20.681,45.711
		c-0.797-0.339-1.559-0.782-2.24-1.38c-8.351-7.325-18.472-7.886-28.841-6.762c-23.03,2.499-38.556,33.524-34.676,69.294
		c3.88,35.772,25.698,62.746,48.729,60.246c7.771-0.843,14.685-0.335,20.288-6.761c5.606,6.426,12.52,5.918,20.291,6.761
		c23.03,2.5,44.849-24.474,48.729-60.246C217.771,137.513,202.246,106.488,179.215,103.989z M200.967,140.445
		c-0.468,0.189-0.95,0.28-1.427,0.28c-1.48,0-2.89-0.883-3.487-2.342c-4.823-11.81-12.756-19.144-21.757-20.121
		c-2.07-0.224-3.562-2.083-3.34-4.151c0.225-2.068,2.084-3.565,4.15-3.337c11.842,1.284,22.018,10.309,27.921,24.759
		C203.813,137.458,202.892,139.658,200.967,140.445z"/>
	<path class="st2" d="M214.486,56.311c-9.469,14.519-21.435,9.311-35.349,14.278c-12.494,4.463-23.204,21.419-23.204,21.419
		C221.974,116.105,214.486,56.311,214.486,56.311z"/>
</g>
</svg>
