<?xml version="1.0" encoding="utf-8"?>
<!-- Generator: Adobe Illustrator 15.1.0, SVG Export Plug-In . SVG Version: 6.00 Build 0)  -->
<!DOCTYPE svg PUBLIC "-//W3C//DTD SVG 1.1//EN" "http://www.w3.org/Graphics/SVG/1.1/DTD/svg11.dtd">
<svg version="1.1" id="Layer_1" xmlns="http://www.w3.org/2000/svg" xmlns:xlink="http://www.w3.org/1999/xlink" x="0px" y="0px"
	 width="290px" height="290px" viewBox="0 0 290 290" style="enable-background:new 0 0 290 290;" xml:space="preserve">
<style type="text/css">
<![CDATA[
	.st0{fill:#F9D15C;}
	.st1{fill:#FAE197;}
	.st2{fill:#FFFFFF;}
]]>
</style>
<path class="st1" d="M145,0C64.918,0,0,64.919,0,144.999C0,225.084,64.918,290,145,290s145-64.916,145-145.002
	C290,64.919,225.082,0,145,0z"/>
<path class="st0" d="M193.714,61.065c-4.348-4.348-8.967-10.873-14.14-14.142c-9.688-6.117-29.823-1.999-41.347-1.999
	c-5.804,0-19.193-2.578-24.617,0c-4.564,2.169-2.846,5.937-2.846,11.838c0,12.75-3.549,25.21,5.815,34.457
	c-12.836,0-29.86-4.316-30.562,12.271c-0.77,18.233,0,36.667,0,54.917c0,10.911-3.598,28.668,3.19,37.84
	c3.743,5.055,9.412,9.41,13.865,13.864c1.956,1.954,5.317,4.252,6.653,6.653c2.758,4.966,1.026,13.988,1.026,19.82
	c0,8.836,5.125,11.938,11.153,17.965c9.056,9.056,18.115,18.113,27.17,27.173c2.587,2.587,5.174,5.174,7.76,7.757
	c70.635-5.713,126.932-62.018,132.643-132.648C257.558,124.907,225.636,92.987,193.714,61.065z"/>
<path class="st2" d="M126.224,145.176c23.434-14.534,21.514-30.008,12.143-33.055c-9.375-3.047-12.143,4.222-12.143,4.222
	s-2.771-7.269-12.145-4.222C104.708,115.168,102.792,130.642,126.224,145.176z"/>
<path class="st2" d="M194.037,90.138H92.966c-3.88,0-7.023,3.144-7.023,7.023v90.673c28,24.66,89.584,23.676,115.115,0V97.162
	C201.058,93.282,197.917,90.138,194.037,90.138z M187.011,180.812H99.99v-76.627h87.021V180.812z"/>
<rect x="110.673" y="43.84" class="st2" width="65.655" height="39.179"/>
<path class="st2" d="M110.673,250.271h65.655V211.09c-33.319,8.545-65.655,0-65.655,0V250.271z"/>
<polygon class="st2" points="131.228,160.702 117.263,160.702 117.263,166.321 134.398,166.321 140.933,155.521 150.503,178.154 
	158.957,150.747 163.056,166.321 179.271,166.321 179.271,160.702 167.392,160.702 159.383,130.296 149.675,161.769 
	141.822,143.197 "/>
<rect x="151.878" y="115.399" class="st2" width="28.798" height="7.726"/>
<path class="st2" d="M209.042,163.385h-8.623v22.546h8.623c2.478,0,4.489-2.009,4.489-4.488v-13.565
	C213.531,165.395,211.519,163.385,209.042,163.385z"/>
<path class="st2" d="M78.958,185.931h8.623v-22.546h-8.623c-2.479,0-4.489,2.01-4.489,4.492v13.564
	C74.467,183.922,76.478,185.931,78.958,185.931z"/>
</svg>
