<?xml version="1.0" encoding="utf-8"?>
<!-- Generator: Adobe Illustrator 15.1.0, SVG Export Plug-In . SVG Version: 6.00 Build 0)  -->
<!DOCTYPE svg PUBLIC "-//W3C//DTD SVG 1.1//EN" "http://www.w3.org/Graphics/SVG/1.1/DTD/svg11.dtd">
<svg version="1.1" id="Layer_1" xmlns="http://www.w3.org/2000/svg" xmlns:xlink="http://www.w3.org/1999/xlink" x="0px" y="0px"
	 width="290px" height="290px" viewBox="0 0 290 290" style="enable-background:new 0 0 290 290;" xml:space="preserve">
<style type="text/css">
<![CDATA[
	.st0{fill:#8D2271;}
	.st1{fill:#FFFFFF;}
	.st2{fill:#71195B;}
]]>
</style>
<g>
	<path class="st0" d="M145.002,0C225.082,0,290,64.918,290,145c0,9.819-0.979,19.41-2.838,28.68
		c-0.823,4.094-1.815,8.121-2.975,12.083l-76.859-98.688l-8.582,32.424l-33.845-43.458l-9.444,53.259l-32.883-42.226l-7.941,38.786
		l-13.253-17.015l-6.996,32.152l-14.405-18.495l-8.255,27.117l-13.186-16.934l-9.639,27.085l101.344,130.127
		c-1.74,0.063-3.486,0.103-5.241,0.103c-8.466,0-16.756-0.729-24.822-2.12C51.924,276.107,0,216.616,0,145
		C0,64.918,64.919,0,145.002,0z"/>
	<path class="st2" d="M58.538,132.686l13.186,16.934l8.255-27.117l14.405,18.495l6.996-32.152l13.253,17.015l7.941-38.786
		l32.883,42.226l9.444-53.259l33.845,43.458l8.582-32.424l76.859,98.688c-17.142,58.631-70.323,101.873-133.944,104.135
		L48.899,159.771L58.538,132.686z"/>
	<path class="st1" d="M180.327,106.635h0.499h0.502c3.314,0,6.001,2.688,6.001,6.001v67.344c0,3.312-2.687,6.001-6.001,6.001h-0.502
		h-0.499c-3.315,0-6.001-2.688-6.001-6.001v-67.344C174.326,109.323,177.012,106.635,180.327,106.635z"/>
	<path class="st1" d="M95.646,106.635h0.499h0.501c3.315,0,6.002,2.688,6.002,6.001v67.344c0,3.312-2.687,6.001-6.002,6.001h-0.501
		h-0.499c-3.315,0-6.001-2.688-6.001-6.001v-67.344C89.645,109.323,92.33,106.635,95.646,106.635z"/>
	<path class="st1" d="M159.155,73.798h0.502h0.499c3.314,0,6.001,2.686,6.001,6v133.021c0,3.314-2.687,5.998-6.001,5.998h-0.499
		h-0.502c-3.312,0-6.001-2.684-6.001-5.998V79.798C153.154,76.484,155.843,73.798,159.155,73.798z"/>
	<path class="st1" d="M137.986,120.426h0.499h0.501c3.312,0,6.002,2.686,6.002,6.001v39.763c0,3.315-2.689,6.002-6.002,6.002h-0.501
		h-0.499c-3.315,0-6.001-2.687-6.001-6.002v-39.763C131.985,123.111,134.671,120.426,137.986,120.426z"/>
	<path class="st1" d="M74.474,120.426h0.501h0.499c3.315,0,6.002,2.686,6.002,6.001v39.763c0,3.315-2.687,6.002-6.002,6.002h-0.499
		h-0.501c-3.312,0-5.999-2.687-5.999-6.002v-39.763C68.475,123.111,71.161,120.426,74.474,120.426z"/>
	<path class="st1" d="M222.668,119.379h0.499h0.499c3.315,0,6.004,2.687,6.004,6.001v41.857c0,3.312-2.688,5.999-6.004,5.999h-0.499
		h-0.499c-3.315,0-6.001-2.687-6.001-5.999V125.38C216.667,122.066,219.353,119.379,222.668,119.379z"/>
	<path class="st1" d="M201.496,84.797h0.502h0.499c3.315,0,6.001,2.688,6.001,6.001V201.82c0,3.312-2.686,5.998-6.001,5.998h-0.499
		h-0.502c-3.312,0-5.998-2.686-5.998-5.998V90.798C195.498,87.484,198.184,84.797,201.496,84.797z"/>
	<path class="st1" d="M53.305,131.043h0.498h0.502c3.315,0,6.002,2.688,6.002,6.001v18.529c0,3.312-2.687,5.999-6.002,5.999h-0.502
		h-0.498c-3.315,0-6.002-2.687-6.002-5.999v-18.529C47.303,133.731,49.989,131.043,53.305,131.043z"/>
	<path class="st1" d="M116.814,84.797h0.502h0.498c3.315,0,6.002,2.688,6.002,6.001V201.82c0,3.312-2.687,5.998-6.002,5.998h-0.498
		h-0.502c-3.312,0-5.998-2.686-5.998-5.998V90.798C110.816,87.484,113.502,84.797,116.814,84.797z"/>
</g>
</svg>
