<?xml version="1.0" encoding="utf-8"?>
<!-- Generator: Adobe Illustrator 15.1.0, SVG Export Plug-In . SVG Version: 6.00 Build 0)  -->
<!DOCTYPE svg PUBLIC "-//W3C//DTD SVG 1.1//EN" "http://www.w3.org/Graphics/SVG/1.1/DTD/svg11.dtd">
<svg version="1.1" id="Layer_1" xmlns="http://www.w3.org/2000/svg" xmlns:xlink="http://www.w3.org/1999/xlink" x="0px" y="0px"
	 width="50.38px" height="69.999px" viewBox="0 0 50.38 69.999" style="enable-background:new 0 0 50.38 69.999;"
	 xml:space="preserve">
<style type="text/css">
<![CDATA[
	.st0{fill:#e2f0f1;}
]]>
</style>
<path class="st0" d="M25.262,0c0,0-4.843,13.207-15.409,22.012c-10.565,8.805-20.692,43.585,15.409,47.987
	c0,0-11.447-1.76-15.849-18.93c-4.402-17.17,16.73-29.497,16.73-29.497s13.647,7.924,15.408,22.453
	c1.761,14.527-7.044,19.371-7.044,19.371s4.843-17.17-8.364-25.976c0,0-17.17,21.132,1.32,31.698c0,0,23.773-0.88,22.894-28.616
	C49.475,12.767,25.262,0,25.262,0z"/>
</svg>
