<?xml version="1.0" encoding="utf-8"?>
<!-- Generator: Adobe Illustrator 15.1.0, SVG Export Plug-In . SVG Version: 6.00 Build 0)  -->
<!DOCTYPE svg PUBLIC "-//W3C//DTD SVG 1.1//EN" "http://www.w3.org/Graphics/SVG/1.1/DTD/svg11.dtd">
<svg version="1.1" id="Layer_1" xmlns="http://www.w3.org/2000/svg" xmlns:xlink="http://www.w3.org/1999/xlink" x="0px" y="0px"
	 width="50.537px" height="70px" viewBox="0 0 50.537 70" style="enable-background:new 0 0 50.537 70;" xml:space="preserve">
<style type="text/css">
<![CDATA[
	.st0{fill:#e2f0f1;}
]]>
</style>
<g>
	<g>
		<path class="st0" d="M30.848,52.518c3.772,1.292,7.107,2.119,11.899,3.586C40.904,79.359,18.916,70.125,30.848,52.518
			L30.848,52.518z M50.478,31.154c-0.245-6.979-1.479-16.138-11.274-14.706c-4.591,1.201-7.982,6.241-9.58,14.942
			c-0.875,4.784-0.364,11.502,0.666,15.529c0.947,2.832,0.626,2.66,1.638,3.197c3.93,0.888,7.814,1.866,11.776,2.861
			C47.724,50.141,51.026,35.062,50.478,31.154L50.478,31.154z M20.248,30.62c1.032-4.025,1.542-10.74,0.667-15.524
			C19.321,6.395,15.925,1.35,11.333,0.149C1.538-1.283,0.31,7.875,0.06,14.859c-0.549,3.905,2.757,18.983,6.779,21.825
			c3.957-1,7.842-1.979,11.771-2.866C19.625,33.281,19.304,33.458,20.248,30.62L20.248,30.62z M7.79,39.811
			c1.842,23.253,23.831,14.02,11.9-3.592C15.917,37.515,12.582,38.336,7.79,39.811L7.79,39.811z M7.79,39.811"/>
	</g>
</g>
</svg>
