<?xml version="1.0" encoding="utf-8"?>
<!-- Generator: Adobe Illustrator 15.1.0, SVG Export Plug-In . SVG Version: 6.00 Build 0)  -->
<!DOCTYPE svg PUBLIC "-//W3C//DTD SVG 1.1//EN" "http://www.w3.org/Graphics/SVG/1.1/DTD/svg11.dtd">
<svg version="1.1" id="Layer_1" xmlns="http://www.w3.org/2000/svg" xmlns:xlink="http://www.w3.org/1999/xlink" x="0px" y="0px"
	 width="79.952px" height="80.334px" viewBox="0 0 79.952 80.334" style="enable-background:new 0 0 79.952 80.334;"
	 xml:space="preserve">
<style type="text/css">
<![CDATA[
	.st0{fill:#4CB4AD;}
	.st1{fill:#B2DFDC;}
	.st2{fill:#FFFFFF;}
]]>
</style>
<circle class="st1" cx="39.976" cy="39.976" r="39.976"/>
<path class="st0" d="M79.909,45.627c-7.969-9.28-18.971-21.489-18.971-21.489l-5.934,5.202l-8.283-9.796l-11.835,4.734l0.295,7.43
	l-7.442-7.38l-1.927,7.183l8.285,11.18l-9.074,9.992l-5.39,8.346l21.763,19.306C61.194,79.792,77.388,64.868,79.909,45.627z"/>
<g>
	<path class="st2" d="M49.558,42.583c6.539-3.468,10.996-10.338,10.996-18.256c0-0.063-0.011-0.125-0.011-0.188h-8.112
		c0,0.063,0.009,0.125,0.009,0.188c0,6.93-5.618,12.547-12.546,12.547c-6.93,0-12.548-5.618-12.548-12.547
		c0-0.063,0.008-0.125,0.008-0.188H19.24c0,0.063-0.008,0.125-0.008,0.188c0,7.918,4.458,14.788,10.995,18.256
		c-6.536,3.469-10.995,10.338-10.995,18.256c0,0.062,0.008,0.125,0.008,0.188h8.113c0-0.062-0.008-0.125-0.008-0.188
		c0-6.93,5.619-12.549,12.548-12.549c6.928,0,12.546,5.619,12.546,12.549c0,0.062-0.009,0.125-0.009,0.188h8.113
		c0-0.062,0.01-0.125,0.01-0.188C60.554,52.92,56.097,46.051,49.558,42.583z"/>
	<circle class="st2" cx="39.894" cy="25.364" r="8.775"/>
</g>
</svg>
