<?xml version="1.0" encoding="utf-8"?>
<!-- Generator: Adobe Illustrator 15.1.0, SVG Export Plug-In . SVG Version: 6.00 Build 0)  -->
<!DOCTYPE svg PUBLIC "-//W3C//DTD SVG 1.1//EN" "http://www.w3.org/Graphics/SVG/1.1/DTD/svg11.dtd">
<svg version="1.1" id="Layer_1" xmlns="http://www.w3.org/2000/svg" xmlns:xlink="http://www.w3.org/1999/xlink" x="0px" y="0px"
	 width="30px" height="37.917px" viewBox="0 0 30 37.917" style="enable-background:new 0 0 30 37.917;" xml:space="preserve">
<style type="text/css">
<![CDATA[
	.st0{fill:#4CB4AD;}
	.st1{fill:#B2DFDC;}
	.st2{fill:#4CB4AD;stroke:#B2DFDC;stroke-miterlimit:10;}
	.st3{fill:#FFFFFF;}
]]>
</style>
<g>
	<path class="st0" d="M30,17.854c0,2.403-1.949,4.351-4.352,4.351H4.351C1.947,22.205,0,20.257,0,17.854V4.351
		C0,1.947,1.947,0,4.351,0H25.65C28.051,0,30,1.947,30,4.351V17.854z"/>
	<g>
		<path class="st1" d="M26.018,3.731H4.016c0,0,10.188,6.999,10.863,6.993C15.553,10.719,26.018,3.731,26.018,3.731z"/>
		<path class="st1" d="M26.475,17.642c0,0.461-0.375,0.834-0.834,0.834H4.358c-0.458,0-0.832-0.373-0.832-0.834V7.78
			c0-0.326,8.996,6.404,11.59,6.418c2.844,0.016,11.356-6.823,11.356-6.69v10.134H26.475z"/>
	</g>
</g>
<circle class="st2" cx="17.643" cy="27.144" r="10.273"/>
<g>
	<path class="st3" d="M17.068,29.912c1.406-0.08,2.429-0.326,3.679,0.147l0.175,0.175c0.562,0.446-0.527,1.203-0.977,1.297
		c-0.709,0.203-1.568,0.236-2.313,0.279c-2.156,0.312-3.822,0.372-4.866-1.631c-0.028-0.559,0.307-1.137,0.709-1.497
		c1.198-1.101,2.419-2.181,3.664-3.233l0.055-0.041l0.255-0.176v-0.014c0.001-0.117-0.033-0.178-0.106-0.172l-0.16,0.052
		l-0.064,0.028l-0.281,0.065l-0.039,0.013l-0.389,0.162c-0.23,0.141-0.646,0.196-0.922,0.254l-0.055,0.026
		c-2.479-0.873-1.148-2.181,1.165-3.369c1.772-0.917,3.504-0.532,4.854,1.017l0.2,0.254l0.064,0.084l0.161,0.187
		c0.505,2.015-0.728,3.567-2.834,4.413c-0.578,0.309-1.101,0.729-1.524,1.23L17.49,29.49C17.324,29.607,17.188,29.748,17.068,29.912
		C17.766,29.875,17.176,29.766,17.068,29.912z"/>
</g>
</svg>
