<?xml version="1.0" encoding="utf-8"?>
<!-- Generator: Adobe Illustrator 15.1.0, SVG Export Plug-In . SVG Version: 6.00 Build 0)  -->
<!DOCTYPE svg PUBLIC "-//W3C//DTD SVG 1.1//EN" "http://www.w3.org/Graphics/SVG/1.1/DTD/svg11.dtd">
<svg version="1.1" id="Layer_1" xmlns="http://www.w3.org/2000/svg" xmlns:xlink="http://www.w3.org/1999/xlink" x="0px" y="0px"
	 width="25px" height="31.206px" viewBox="0 0 25 31.206" style="enable-background:new 0 0 25 31.206;" xml:space="preserve">
<style type="text/css">
<![CDATA[
	.st0{fill:#b2dfdc;}
	.st1{fill:#4cb4ad;}
	.st2{fill-rule:evenodd;clip-rule:evenodd;fill:#b2dfdc;}
	.st3{fill-rule:evenodd;clip-rule:evenodd;fill:#4cb4ad;}
]]>
</style>
<g>
	<g>
		<path class="st1" d="M17.883,8.363c1.953,0,3.537,1.583,3.537,3.537v15.769c0,1.953-1.584,3.536-3.537,3.536H7.125
			c-1.953,0-3.537-1.583-3.537-3.536V11.9c0-1.954,1.583-3.537,3.537-3.537H17.883z"/>
		<path class="st1" d="M25,24.806c0-1.848-1.442-3.36-3.263-3.472v6.946C23.558,28.168,25,26.656,25,24.806z"/>
		<path class="st1" d="M0,24.808c0,1.849,1.442,3.36,3.263,3.473v-6.947C1.442,21.446,0,22.958,0,24.808z"/>
		<path class="st3" d="M18.549,4.733L18.549,4.733c-1.563-1.563-3.974-2.621-6.086-2.621S8.236,3.17,6.377,4.733
			c-0.253,0.548-1.055,0.548-1.311,0c-0.549-0.465-0.549-1.057,0-1.563c3.974-4.227,10.861-4.227,15.087,0
			c0.253,0.506,0.253,1.098,0,1.563C19.605,5.282,18.844,5.282,18.549,4.733L18.549,4.733z"/>
		<path class="st3" d="M16.203,7.142L16.203,7.142c-2.114-2.113-5.283-2.113-7.396,0c-0.253,0.253-1.057,0.253-1.605,0
			c-0.253-0.549-0.253-1.057,0-1.606c2.916-2.874,7.649-2.874,10.565,0c0.296,0.549,0.296,1.057,0,1.606
			C17.259,7.396,16.71,7.396,16.203,7.142L16.203,7.142z"/>
		<path class="st0" d="M4.941,12.657c0-1.293,1.048-2.341,2.341-2.341h10.436c1.293,0,2.341,1.048,2.341,2.341v7.12
			c0,1.292-1.048,2.34-2.341,2.34H7.282c-1.292,0-2.341-1.048-2.341-2.34V12.657z"/>
	</g>
	<g>
		<path class="st2" d="M8.781,26.292c0,0.188-0.142,0.33-0.377,0.33H5.711c-0.236,0-0.331-0.142-0.331-0.33v-0.709
			c0-0.189,0.094-0.378,0.331-0.378h2.692c0.236,0,0.377,0.188,0.377,0.378V26.292z"/>
		<path class="st2" d="M13.598,26.669c0,0.235-0.236,0.472-0.52,0.472h-1.37c-0.331,0-0.566-0.236-0.566-0.472v-1.465
			c0-0.235,0.236-0.472,0.566-0.472h1.37c0.283,0,0.52,0.236,0.52,0.472V26.669z"/>
		<path class="st2" d="M19.405,26.292c0,0.188-0.141,0.33-0.33,0.33h-2.738c-0.189,0-0.379-0.142-0.379-0.33v-0.709
			c0-0.189,0.189-0.378,0.379-0.378h2.738c0.047,0,0.047,0,0.047,0c0.095,0.142,0.188,0.283,0.283,0.378V26.292z"/>
	</g>
</g>
</svg>
